
<svg width="149px" height="142px" viewBox="0 0 149 142" version="1.1" xmlns="http://www.w3.org/2000/svg" xmlns:xlink="http://www.w3.org/1999/xlink">
    <g id="Page-1" stroke="none" stroke-width="1" fill="none" fill-rule="evenodd">
        <g id="Capture-Data-Page" transform="translate(-581.000000, -199.000000)">
            <g id="Personality" transform="translate(469.000000, 115.000000)">
                <g id="Group-2" transform="translate(112.000000, 84.000000)">
                    <g id="arrows">
                        <g id="Group">
                            <g transform="translate(0.000000, 80.000000)">
                                <path d="M21.8373626,4.48874921 C23.6571429,6.62658705 24.8703297,9.0698303 24.8703297,12.1238843 C24.8703297,18.2319925 19.7142857,23.1184789 13.6483516,23.1184789 C12.4351648,23.1184789 11.221978,22.8130735 10.0087912,22.5076681 C12.1318681,24.645506 14.8615385,26.172533 17.8945055,26.172533 C23.9604396,26.172533 28.8131868,21.2860465 29.1164835,15.1779384 C29.1164835,9.98604651 26.0835165,6.01577624 21.8373626,4.48874921 Z" id="Path" fill="#4DE0F9"></path>
                                <path d="M16.6813187,26.172533 C16.6813187,26.172533 16.6813187,26.172533 16.6813187,26.172533 C13.0417582,26.172533 10.0087912,24.645506 7.58241758,22.2022627 C5.15604396,19.7590195 3.94285714,16.39956 3.94285714,13.0401006 C3.94285714,9.68064111 5.45934066,6.32118165 7.88571429,3.8779384 C10.3120879,1.43469516 13.3450549,0.213073539 16.9846154,0.213073539 C16.9846154,0.213073539 16.9846154,0.213073539 16.9846154,0.213073539 C23.9604396,0.213073539 29.7230769,6.01577624 29.7230769,13.345506 C29.7230769,16.7049654 28.2065934,20.0644249 25.7802198,22.5076681 C23.0505495,24.9509114 20.0175824,26.172533 16.6813187,26.172533 Z M16.6813187,4.18334381 C14.2549451,4.18334381 12.1318681,5.09956003 10.3120879,6.93199246 C8.49230769,8.76442489 7.58241758,10.9022627 7.58241758,13.345506 C7.58241758,15.7887492 8.49230769,18.2319925 10.3120879,19.7590195 C12.1318681,21.5914519 14.2549451,22.5076681 16.6813187,22.5076681 C16.6813187,22.5076681 16.6813187,22.5076681 16.6813187,22.5076681 C19.1076923,22.5076681 21.2307692,21.5914519 23.0505495,19.7590195 C24.8703297,17.9265871 25.7802198,15.7887492 25.7802198,13.345506 C25.7802198,8.15361408 21.8373626,4.18334381 16.6813187,4.18334381 C16.6813187,4.18334381 16.6813187,4.18334381 16.6813187,4.18334381 Z" id="Shape" fill="#0D5FC3" fill-rule="nonzero"></path>
                                <path d="M32.4527473,46.9401006 L32.4527473,43.2752357 C32.4527473,37.1671276 28.8131868,31.9752357 23.6571429,29.8373979 C26.3868132,32.5860465 27.9032967,36.2509114 27.9032967,40.2211816 L27.9032967,46.6346952" id="Path" fill="#4DE0F9"></path>
                                <path d="M32.756044,45.4130735 L29.1164835,45.4130735 L29.1164835,41.7482087 C29.1164835,34.7238843 23.6571429,29.2265871 16.6813187,28.9211816 C13.3450549,28.9211816 10.3120879,30.1428033 7.88571429,32.5860465 C5.45934066,35.0292898 4.24615385,38.0833438 4.24615385,41.4428033 L4.24615385,45.4130735 L0.606593407,45.4130735 L0.606593407,41.4428033 C0.606593407,37.1671276 2.42637363,32.8914519 5.45934066,30.1428033 C8.49230769,27.0887492 12.4351648,25.2563168 16.9846154,25.5617222 C21.2307692,25.5617222 25.1736264,27.3941546 28.2065934,30.4482087 C31.2395604,33.5022627 32.756044,37.7779384 32.756044,42.0536141 L32.756044,45.4130735 Z" id="Path" fill="#0D5FC3"></path>
                            </g>
                            <g transform="translate(116.000000, 80.000000)">
                                <path d="M22.3384615,4.48874921 C24.1582418,6.62658705 25.3714286,9.0698303 25.3714286,12.1238843 C25.3714286,18.2319925 20.2153846,23.1184789 14.1494505,23.1184789 C12.9362637,23.1184789 11.7230769,22.8130735 10.5098901,22.5076681 C12.632967,24.645506 15.3626374,26.172533 18.3956044,26.172533 C24.4615385,26.172533 29.3142857,21.2860465 29.6175824,15.1779384 C29.6175824,9.98604651 26.5846154,6.01577624 22.3384615,4.48874921 Z" id="Path" fill="#4DE0F9"></path>
                                <path d="M17.1824176,26.172533 C16.8791209,26.172533 16.8791209,26.172533 17.1824176,26.172533 C13.5428571,26.172533 10.5098901,24.645506 8.08351648,22.2022627 C5.65714286,19.7590195 4.44395604,16.39956 4.44395604,13.0401006 C4.44395604,9.68064111 5.96043956,6.32118165 8.38681319,3.8779384 C10.8131868,1.43469516 13.8461538,0.213073539 17.4857143,0.213073539 C17.4857143,0.213073539 17.4857143,0.213073539 17.4857143,0.213073539 C24.4615385,0.213073539 30.2241758,6.01577624 30.2241758,13.345506 C30.2241758,16.7049654 28.7076923,20.0644249 26.2813187,22.5076681 C23.5516484,24.9509114 20.5186813,26.172533 17.1824176,26.172533 Z M16.8791209,4.18334381 C14.4527473,4.18334381 12.3296703,5.09956003 10.5098901,6.93199246 C8.69010989,8.76442489 7.78021978,10.9022627 7.78021978,13.345506 C7.78021978,15.7887492 8.69010989,18.2319925 10.5098901,19.7590195 C12.3296703,21.5914519 14.4527473,22.5076681 16.8791209,22.5076681 C16.8791209,22.5076681 16.8791209,22.5076681 16.8791209,22.5076681 C19.3054945,22.5076681 21.4285714,21.5914519 23.2483516,19.7590195 C25.0681319,17.9265871 25.978022,15.7887492 25.978022,13.345506 C26.2813187,8.15361408 22.3384615,4.18334381 16.8791209,4.18334381 C17.1824176,4.18334381 17.1824176,4.18334381 16.8791209,4.18334381 Z" id="Shape" fill="#0D5FC3" fill-rule="nonzero"></path>
                                <path d="M32.6505495,46.9401006 L32.6505495,43.2752357 C32.6505495,37.1671276 29.010989,31.9752357 23.8549451,29.8373979 C26.5846154,32.5860465 28.1010989,36.2509114 28.1010989,40.2211816 L28.1010989,46.6346952" id="Path" fill="#4DE0F9"></path>
                                <path d="M32.9538462,45.4130735 L29.3142857,45.4130735 L29.3142857,41.7482087 C29.3142857,34.7238843 23.8549451,29.2265871 16.8791209,28.9211816 C13.5428571,28.9211816 10.5098901,30.1428033 8.08351648,32.5860465 C5.65714286,35.0292898 4.74725275,38.0833438 4.44395604,41.4428033 L4.44395604,45.4130735 L0.804395604,45.4130735 L0.804395604,41.4428033 C0.804395604,37.1671276 2.62417582,32.8914519 5.65714286,30.1428033 C8.69010989,27.0887492 12.632967,25.2563168 17.1824176,25.5617222 C21.4285714,25.5617222 25.3714286,27.3941546 28.4043956,30.4482087 C31.4373626,33.5022627 32.9538462,37.7779384 32.9538462,42.0536141 L32.9538462,45.4130735 Z" id="Path" fill="#0D5FC3"></path>
                            </g>
                            <g transform="translate(56.000000, 0.000000)" fill="#E6B5B1">
                                <path d="M21.8373626,4.88648649 C23.6571429,7.02432432 24.8703297,9.46756757 24.8703297,12.5216216 C24.8703297,18.6297297 19.7142857,23.5162162 13.6483516,23.5162162 C12.4351648,23.5162162 11.221978,23.2108108 10.0087912,22.9054054 C12.1318681,25.0432432 14.8615385,26.5702703 17.8945055,26.5702703 C23.9604396,26.5702703 28.8131868,21.6837838 29.1164835,15.5756757 C29.1164835,10.6891892 26.0835165,6.41351351 21.8373626,4.88648649 Z" id="Path"></path>
                                <path d="M16.6813187,26.8756757 C16.6813187,26.8756757 16.6813187,26.8756757 16.6813187,26.8756757 C9.4021978,26.8756757 3.63956044,21.072973 3.94285714,13.7432432 C3.94285714,10.3837838 5.45934066,7.02432432 7.88571429,4.58108108 C10.3120879,2.13783784 13.3450549,0.916216216 16.9846154,0.916216216 C16.9846154,0.916216216 16.9846154,0.916216216 16.9846154,0.916216216 C20.3208791,0.916216216 23.6571429,2.44324324 26.0835165,4.88648649 C28.5098901,7.32972973 29.7230769,10.6891892 29.7230769,14.0486486 C29.4197802,21.072973 23.6571429,26.8756757 16.6813187,26.8756757 Z M16.6813187,4.58108108 C14.2549451,4.58108108 12.1318681,5.4972973 10.3120879,7.32972973 C8.49230769,9.16216216 7.58241758,11.3 7.58241758,13.7432432 C7.58241758,18.9351351 11.5252747,22.9054054 16.6813187,23.2108108 C16.6813187,23.2108108 16.6813187,23.2108108 16.6813187,23.2108108 C21.8373626,23.2108108 25.7802198,19.2405405 25.7802198,14.0486486 C25.7802198,11.6054054 24.8703297,9.16216216 23.0505495,7.63513514 C21.5340659,5.4972973 19.410989,4.58108108 16.6813187,4.58108108 C16.6813187,4.58108108 16.6813187,4.58108108 16.6813187,4.58108108 Z" id="Shape" fill-rule="nonzero"></path>
                                <path d="M32.4527473,47.3378378 L32.4527473,43.672973 C32.4527473,37.5648649 28.8131868,32.372973 23.6571429,30.2351351 C26.3868132,32.9837838 27.9032967,36.6486486 27.9032967,40.6189189 L27.9032967,47.0324324" id="Path"></path>
                                <path d="M29.1164835,46.1162162 L29.1164835,42.4513514 C29.1164835,35.427027 23.6571429,29.9297297 16.6813187,29.6243243 C13.3450549,29.6243243 10.3120879,30.8459459 7.88571429,33.2891892 C5.45934066,35.7324324 4.24615385,38.7864865 4.24615385,42.1459459 L4.24615385,46.1162162 L0.606593407,46.1162162 L0.606593407,42.1459459 C0.606593407,33.2891892 7.88571429,25.9594595 16.6813187,25.9594595 C16.6813187,25.9594595 16.6813187,25.9594595 16.9846154,25.9594595 C21.2307692,25.9594595 25.1736264,27.7918919 28.2065934,30.8459459 C31.2395604,33.9 32.756044,38.1756757 32.756044,42.4513514 L32.756044,46.1162162 L29.1164835,46.1162162 Z" id="Path"></path>
                            </g>
                        </g>
                        <g id="Group" transform="translate(6.000000, 22.000000)" fill="#FDE7BB">
                            <path d="M9.26493056,47.8869969 L5.64201389,46.9814241 C9.56684028,27.9643963 23.1527778,11.9659443 41.2673611,5.02321981 L42.475,8.34365325 C25.8699653,14.9845201 12.8878472,30.0773994 9.26493056,47.8869969 Z" id="Path"></path>
                            <polygon id="Path" points="40.3616319 17.0975232 37.040625 15.8900929 40.3616319 7.73993808 32.2100694 4.11764706 33.7196181 0.797213622 45.1921875 5.62693498"></polygon>
                            <polygon id="Path" points="6.84965278 50 0.207638889 39.7368421 3.22673611 37.623839 8.05729167 45.1702786 15.6050347 40.3405573 17.4164931 43.3591331"></polygon>
                        </g>
                        <g id="Group" transform="translate(98.000000, 22.000000)" fill="#B1D7D7">
                            <path d="M36.7753571,47.8869969 C33.1282143,30.0773994 20.3632143,14.9845201 3.03928571,8.64551084 L4.255,5.3250774 C22.4907143,12.2678019 36.1675,28.2662539 40.1185714,47.2832817 L36.7753571,47.8869969 Z" id="Path"></path>
                            <polygon id="Path" points="5.47071429 17.0975232 0.607857143 5.62693498 12.1571429 0.797213622 13.6767857 4.11764706 5.47071429 7.73993808 8.81392857 15.8900929"></polygon>
                            <polygon id="Path" points="39.2067857 50 28.5692857 43.3591331 30.3928571 40.3405573 37.9910714 45.1702786 42.8539286 37.623839 45.8932143 39.7368421"></polygon>
                        </g>
                        <g id="Group" transform="translate(42.000000, 125.000000)" fill="#E6B5B1">
                            <path d="M30.4093168,14.3410256 C20.4068323,14.3410256 10.4043478,11.9 1.61428571,6.71282051 L3.43291925,3.66153846 C19.1944099,12.8153846 38.8962733,13.425641 55.2639752,4.88205128 L57.0826087,8.23846154 C48.5956522,12.2051282 39.5024845,14.3410256 30.4093168,14.3410256 Z" id="Path"></path>
                            <polygon id="Path" points="54.657764 16.7820513 51.3236025 15.5615385 54.3546584 7.01794872 45.8677019 4.27179487 47.0801242 0.61025641 58.9012422 4.88205128"></polygon>
                            <polygon id="Path" points="3.43291925 15.8666667 0.098757764 3.66153846 12.2229814 0.305128205 13.1322981 3.96666667 4.64534161 6.1025641 6.76708075 14.9512821"></polygon>
                        </g>
                    </g>
                </g>
            </g>
        </g>
    </g>
</svg>